# xmcd
#
# Track frame offsets:
#       182
#       7002
#       31992
#       59065
#       99385
#       117100
#       141015
#       160100
#       174952
#
# Disc length: 2652 seconds
#
# Revision: 5
# Processed by: cddbd v1.5.2PL0 Copyright (c) Steve Scherf et al.
# Submitted via: WaveLab 4.01
#
DISCID=6d0a5a09
DTITLE=Mike Bloomfield And Al Kooper - The Live Adventures Of Mike Bloomfield And Al Kooper (1)
DYEAR=1968
DGENRE=Blues-Rock
TTITLE0=Opening Speech
TTITLE1=The 59th Street Bridge Song (Feelin' Groovy)
TTITLE2=I Wonder Who
TTITLE3=Her Holy Modal Highness
TTITLE4=The Weight
TTITLE5=Mary Ann
TTITLE6=Together 'Till the End of Time
TTITLE7=That's All Right
TTITLE8=Green Onion
EXTD=
EXTT0=
EXTT1=
EXTT2=
EXTT3=
EXTT4=
EXTT5=
EXTT6=
EXTT7=
EXTT8=
PLAYORDER=
